<mxfile host="app.diagrams.net" modified="2022-07-04T08:54:47.599Z" agent="5.0 (Windows NT 10.0; Win64; x64) AppleWebKit/537.36 (KHTML, like Gecko) Chrome/103.0.0.0 Safari/537.36" etag="4S9RbY8u5Z6DF5Z6WJCd" version="20.0.4" type="github">
  <diagram id="wlXz9GyACQc2JbTnxNTG" name="Page-1">
    <mxGraphModel dx="1254" dy="1810" grid="1" gridSize="10" guides="1" tooltips="1" connect="1" arrows="1" fold="1" page="1" pageScale="1" pageWidth="827" pageHeight="1169" math="0" shadow="0">
      <root>
        <mxCell id="0" />
        <mxCell id="1" parent="0" />
        <mxCell id="USPjzQIbPg_BnEayNkn5-4" value="Systemanwendung fÃ¼r &quot;Home&quot;" style="text;html=1;strokeColor=none;fillColor=none;align=center;verticalAlign=middle;whiteSpace=wrap;rounded=0;fontStyle=1" parent="1" vertex="1">
          <mxGeometry x="361.5" y="-1160" width="187" height="30" as="geometry" />
        </mxCell>
        <mxCell id="USPjzQIbPg_BnEayNkn5-5" value="" style="rounded=0;whiteSpace=wrap;html=1;labelPosition=center;verticalLabelPosition=top;align=center;verticalAlign=bottom;spacingTop=0;" parent="1" vertex="1">
          <mxGeometry x="80" y="-1120" width="250" height="440" as="geometry" />
        </mxCell>
        <mxCell id="USPjzQIbPg_BnEayNkn5-6" value="" style="rounded=0;whiteSpace=wrap;html=1;" parent="1" vertex="1">
          <mxGeometry x="330" y="-1120" width="250" height="440" as="geometry" />
        </mxCell>
        <mxCell id="USPjzQIbPg_BnEayNkn5-7" value="" style="rounded=0;whiteSpace=wrap;html=1;" parent="1" vertex="1">
          <mxGeometry x="580" y="-1120" width="250" height="440" as="geometry" />
        </mxCell>
        <mxCell id="eISJ6w7Siqg23wZn-5pE-4" value="Frontend" style="text;html=1;strokeColor=none;fillColor=none;align=center;verticalAlign=middle;whiteSpace=wrap;rounded=0;" parent="1" vertex="1">
          <mxGeometry x="175" y="-1120" width="60" height="30" as="geometry" />
        </mxCell>
        <mxCell id="eISJ6w7Siqg23wZn-5pE-5" value="Datenbank" style="text;html=1;strokeColor=none;fillColor=none;align=center;verticalAlign=middle;whiteSpace=wrap;rounded=0;" parent="1" vertex="1">
          <mxGeometry x="675" y="-1120" width="60" height="30" as="geometry" />
        </mxCell>
        <mxCell id="eISJ6w7Siqg23wZn-5pE-8" value="Backend" style="text;html=1;strokeColor=none;fillColor=none;align=center;verticalAlign=middle;whiteSpace=wrap;rounded=0;" parent="1" vertex="1">
          <mxGeometry x="425" y="-1120" width="60" height="30" as="geometry" />
        </mxCell>
        <mxCell id="eISJ6w7Siqg23wZn-5pE-9" value="" style="endArrow=none;html=1;rounded=0;" parent="1" edge="1">
          <mxGeometry width="50" height="50" relative="1" as="geometry">
            <mxPoint x="80" y="-1090" as="sourcePoint" />
            <mxPoint x="830" y="-1090" as="targetPoint" />
          </mxGeometry>
        </mxCell>
        <mxCell id="eISJ6w7Siqg23wZn-5pE-10" value="Home" style="swimlane;" parent="1" vertex="1">
          <mxGeometry x="105" y="-980" width="200" height="200" as="geometry" />
        </mxCell>
        <mxCell id="eISJ6w7Siqg23wZn-5pE-11" value="DatabaseContent.php" style="swimlane;" parent="1" vertex="1">
          <mxGeometry x="355" y="-980" width="200" height="200" as="geometry" />
        </mxCell>
        <mxCell id="eISJ6w7Siqg23wZn-5pE-12" value="database Tabelle" style="rounded=1;whiteSpace=wrap;html=1;" parent="1" vertex="1">
          <mxGeometry x="645" y="-910" width="120" height="60" as="geometry" />
        </mxCell>
        <mxCell id="-gnE7hPTu728lSA7HYdW-1" value="&lt;i&gt;Ordner bzgl. Frontend&lt;/i&gt;: /Technik_Blog/pages/&lt;b&gt;home&lt;/b&gt;" style="text;html=1;align=center;verticalAlign=middle;resizable=0;points=[];autosize=1;strokeColor=none;fillColor=none;" vertex="1" parent="1">
          <mxGeometry x="71.5" y="-660" width="290" height="30" as="geometry" />
        </mxCell>
      </root>
    </mxGraphModel>
  </diagram>
</mxfile>
